<?xml version="1.0" encoding="utf-8"?>
<!-- Generator: Adobe Illustrator 27.5.0, SVG Export Plug-In . SVG Version: 6.00 Build 0)  -->
<svg version="1.1" id="Layer_1" xmlns="http://www.w3.org/2000/svg" xmlns:xlink="http://www.w3.org/1999/xlink" x="0px" y="0px"
	 viewBox="0 0 32 32" style="enable-background:new 0 0 32 32;" xml:space="preserve"  fill="#e5e7eb">
<path d="M16,0C7.2,0,0,7.2,0,16c0,8.8,7.2,16,16,16c8.8,0,16-7.2,16-16S24.8,0,16,0z M25.7,25.2c-2.7-5.4-9.2-7.6-14.5-4.9
	c-2.1,1.1-3.9,2.8-4.9,4.9c-2.4-2.5-3.7-5.8-3.7-9.2c0-7.4,6-13.4,13.4-13.4s13.4,6,13.4,13.4C29.4,19.4,28.1,22.8,25.7,25.2z
	 M16,6.4c-3.2,0-5.8,2.6-5.8,5.8s2.6,5.8,5.8,5.8s5.8-2.6,5.8-5.8S19.2,6.4,16,6.4L16,6.4z"/>
</svg>
