<?xml version="1.0" encoding="utf-8"?>
<!-- Generator: Adobe Illustrator 27.5.0, SVG Export Plug-In . SVG Version: 6.00 Build 0)  -->
<svg version="1.1" id="Layer_1" xmlns="http://www.w3.org/2000/svg" xmlns:xlink="http://www.w3.org/1999/xlink" x="0px" y="0px"
	 viewBox="0 0 32 32" style="enable-background:new 0 0 32 32;" xml:space="preserve"  fill="#e5e7eb">
<path d="M16,32c1.8,0,3.3-1.5,3.3-3.3h-6.6C12.7,30.5,14.2,32,16,32z M25.8,22.2v-8.2c0-5-2.7-9.3-7.4-10.4V2.5
	C18.5,1.1,17.4,0,16,0s-2.5,1.1-2.5,2.5v1.1C8.8,4.7,6.2,8.9,6.2,13.9v8.2L4,24.3c-1,1-0.3,2.8,1.1,2.8h21.6c1.5,0,2.2-1.8,1.2-2.8
	L25.8,22.2z"/>
</svg>
