<svg xmlns="http://www.w3.org/2000/svg" fill-rule="evenodd" clip-rule="evenodd" image-rendering="optimizeQuality" shape-rendering="geometricPrecision" text-rendering="geometricPrecision" viewBox="0 0 6.827 6.827"><rect width="6.827" height="6.827" fill="#b5b7b8" rx="1.28" ry="1.28" class="colore64a19 svgShape"></rect><path fill="#fafafa" d="m4.26 2.51.001.002c.064.08.112.174.117.278a.396.396 0 0 1-.06.223.606.606 0 0 1-.213.21.038.038 0 0 0-.014.013l-.001.003c-.11.242-.332.67-.648.67H3.385c-.316 0-.54-.428-.648-.67l-.002-.003a.038.038 0 0 0-.014-.014.606.606 0 0 1-.213-.21.396.396 0 0 1-.06-.222.487.487 0 0 1 .118-.278l.001-.002a.035.035 0 0 0 .005-.026 1.005 1.005 0 0 1 .032-.554.759.759 0 0 1 .27-.349.97.97 0 0 1 .54-.168.97.97 0 0 1 .538.168.759.759 0 0 1 .27.349c.068.177.069.37.033.554-.002.009 0 .018.004.026zM2.953 3.747c.107.137.254.272.438.272H3.446c.177 0 .325-.142.427-.272l.014-.019.023.008c.193.072.386.148.57.242.169.086.335.19.474.32.043.041.083.085.12.131.099.123.168.26.21.41.048.178.055.363.036.545l-.003.03H1.51l-.003-.03a1.49 1.49 0 0 1 .036-.544 1.123 1.123 0 0 1 .33-.541c.14-.131.305-.235.474-.321.184-.094.377-.17.57-.242l.022-.008.015.019z" class="colorfffffe svgShape"></path></svg>